<?xml version="1.0" encoding="UTF-8" standalone="no"?>
<!-- Generator: Adobe Illustrator 16.0.0, SVG Export Plug-In . SVG Version: 6.00 Build 0)  -->

<svg
   xmlns:dc="http://purl.org/dc/elements/1.1/"
   xmlns:cc="http://creativecommons.org/ns#"
   xmlns:rdf="http://www.w3.org/1999/02/22-rdf-syntax-ns#"
   xmlns:svg="http://www.w3.org/2000/svg"
   xmlns="http://www.w3.org/2000/svg"
   xmlns:sodipodi="http://sodipodi.sourceforge.net/DTD/sodipodi-0.dtd"
   xmlns:inkscape="http://www.inkscape.org/namespaces/inkscape"
   version="1.1"
   x="0px"
   y="0px"
   width="129.36566"
   height="122.625"
   viewBox="0 0 129.36566 122.625"
   enable-background="new 0 0 236.84 290"
   xml:space="preserve"
   id="svg3887"
   sodipodi:docname="Icon_10-01 (copy).svg"
   inkscape:version="0.48.5 r10040"><metadata
     id="metadata3893"><rdf:RDF><cc:Work
         rdf:about=""><dc:format>image/svg+xml</dc:format><dc:type
           rdf:resource="http://purl.org/dc/dcmitype/StillImage" /><dc:title /></cc:Work></rdf:RDF></metadata><defs
     id="defs3891" /><sodipodi:namedview
     pagecolor="#ffffff"
     bordercolor="#666666"
     borderopacity="1"
     objecttolerance="10"
     gridtolerance="10"
     guidetolerance="10"
     inkscape:pageopacity="0"
     inkscape:pageshadow="2"
     inkscape:window-width="1366"
     inkscape:window-height="597"
     id="namedview3889"
     showgrid="false"
     inkscape:zoom="0.8137931"
     inkscape:cx="116.9123"
     inkscape:cy="120.75001"
     inkscape:window-x="0"
     inkscape:window-y="27"
     inkscape:window-maximized="1"
     inkscape:current-layer="svg3887"
     fit-margin-top="0"
     fit-margin-left="0"
     fit-margin-right="0"
     fit-margin-bottom="0" /><g
     id="Background"
     transform="matrix(0.60556602,0,0,0.87130669,-7.0549604,-123.97876)"><rect
       x="-3.1600001"
       y="-4"
       width="243"
       height="296"
       id="rect3755"
       style="fill:none" /></g><g
     id="Icon"
     transform="translate(-53.732277,-143.125)"><g
       id="g3808"><path
         stroke-miterlimit="10"
         d="m 108.559,257.316 v 5.107 h 0.015 c 0.177,1.145 4.496,2.064 9.817,2.064 5.321,0 9.639,-0.92 9.814,-2.064 h 0.017 v -5.107"
         id="path3758"
         inkscape:connector-curvature="0"
         style="fill:none;stroke:#ffffff;stroke-width:2.55500007;stroke-linecap:round;stroke-linejoin:round;stroke-miterlimit:10" /><path
         stroke-miterlimit="10"
         d="m 124.36,255.912 c 2.351,0.219 3.866,0.627 3.866,1.318 0,1.184 -4.418,2.137 -9.871,2.137 -5.455,0 -9.873,-0.953 -9.873,-2.137 0,-0.666 1.413,-1.07 3.627,-1.295"
         id="path3760"
         inkscape:connector-curvature="0"
         style="fill:none;stroke:#ffffff;stroke-width:2.55500007;stroke-linecap:round;stroke-linejoin:round;stroke-miterlimit:10" /><g
         id="g3764"><path
           d="m 122.049,220.825 1.993,34.599 c -0.729,0.25 -2.497,0.614 -5.764,0.614 -3.281,0 -5.049,-0.367 -5.771,-0.617 l 2,-34.596 h 7.542 m 1.445,-1.53 h -10.431 l -2.124,36.74 h 0.01 v 0.002 c 0,0.848 2.882,1.531 7.329,1.531 4.445,0 7.331,-0.684 7.331,-1.531 l -0.006,-0.002 h 0.007 z"
           id="path3762"
           inkscape:connector-curvature="0"
           style="fill:#ffffff" /></g><path
         stroke-miterlimit="10"
         d="m 113.53,221.018 c -0.129,1.818 -0.457,11.49 -0.415,11.471 5.6,-2.449 10.231,0.088 10.231,0.088 l -0.284,-11.723"
         id="path3766"
         inkscape:connector-curvature="0"
         style="fill:none;stroke:#ffffff;stroke-width:2.55500007;stroke-linecap:round;stroke-linejoin:round;stroke-miterlimit:10" /><path
         stroke-miterlimit="10"
         d="m 61.463,220.422 c -4.906,-0.027 -6.79,-4.715 -6.4,-6.854 l 13.133,-64.943 c 0.387,-2.141 2.4,-3.881 4.506,-3.881 l 90.898,-0.33 c 2.1,0 4.138,1.715 4.549,3.83 l 13.654,64.482 c 0.307,2.91 -2.129,6.994 -6.257,6.994 z"
         id="path3768"
         inkscape:connector-curvature="0"
         style="fill:none;stroke:#ffffff;stroke-width:2.55500007;stroke-linecap:round;stroke-linejoin:round;stroke-miterlimit:10" /><g
         id="g3772"><path
           d="m 158.727,171.021 c 1,0.226 4.989,2.418 6.067,3.31 l 1.665,9.207 c -1.011,0.932 -3.96,2.804 -4.827,3.021 l -17.221,0.062 c -0.978,-0.198 -4.871,-2.322 -5.996,-3.238 l -0.687,-9.225 c 0.971,-0.9 4.025,-2.856 4.892,-3.099 l 16.107,-0.038 m 0.076,-1.531 -16.28,0.039 c -1.099,0.004 -6.402,3.52 -6.359,4.203 l 0.762,10.244 c 0.049,0.695 6.249,4.174 7.424,4.174 l 17.369,-0.062 c 1.174,-0.01 6.482,-3.527 6.357,-4.211 l -1.848,-10.217 c -0.125,-0.685 -6.324,-4.17 -7.425,-4.17 z"
           id="path3770"
           inkscape:connector-curvature="0"
           style="fill:#ffffff" /></g><g
         id="g3776"><path
           d="m 126.743,171.021 c 0.926,0.23 4.479,2.318 5.511,3.208 l 0.567,9.221 c -1.069,0.933 -4.448,2.938 -5.365,3.148 l -17.231,0.063 c -0.93,-0.207 -4.359,-2.202 -5.436,-3.126 l 0.411,-9.257 c 1.023,-0.91 4.488,-2.985 5.43,-3.223 l 16.113,-0.034 m 0.084,-1.531 -16.286,0.035 c -1.1,0 -6.822,3.527 -6.85,4.215 l -0.456,10.275 c -0.033,0.695 5.752,4.176 6.92,4.176 l 17.375,-0.064 c 1.17,0 6.892,-3.523 6.853,-4.215 l -0.631,-10.246 c -0.047,-0.686 -5.828,-4.176 -6.925,-4.176 z"
           id="path3774"
           inkscape:connector-curvature="0"
           style="fill:#ffffff" /></g><g
         id="g3780"><path
           d="m 94.732,171.021 c 0.877,0.24 3.978,2.2 4.952,3.098 l -0.542,9.262 c -1.115,0.924 -4.957,3.068 -5.926,3.276 l -17.229,0.06 c -0.874,-0.212 -3.867,-2.083 -4.884,-3.013 l 1.522,-9.299 c 1.062,-0.898 5,-3.112 5.996,-3.345 l 16.111,-0.039 m 0.092,-1.531 -16.288,0.039 c -1.102,0.004 -7.245,3.533 -7.356,4.229 l -1.686,10.303 c -0.114,0.687 5.24,4.186 6.418,4.186 10e-4,0 0.002,0 0.003,0 l 17.373,-0.061 c 1.164,-0.004 7.313,-3.535 7.353,-4.229 l 0.602,-10.277 c 0.035,-0.69 -5.324,-4.19 -6.419,-4.19 z"
           id="path3778"
           inkscape:connector-curvature="0"
           style="fill:#ffffff" /></g><g
         id="g3784"><path
           d="m 161.809,191.659 c 1.053,0.223 5.496,2.664 6.624,3.613 l 1.81,10.023 c -1.058,1 -4.382,3.113 -5.308,3.329 l -18.57,0.062 c -1.028,-0.194 -5.373,-2.563 -6.554,-3.541 l -0.747,-10.042 c 1.019,-0.979 4.422,-3.16 5.367,-3.403 l 17.378,-0.041 m 0.068,-1.53 v 0 l -17.532,0.041 c -1.186,0.002 -6.896,3.789 -6.846,4.527 l 0.82,11.033 c 0.051,0.74 6.726,4.486 7.99,4.486 l 18.702,-0.062 c 1.267,-0.012 6.981,-3.797 6.843,-4.539 l -1.986,-11.002 c -0.132,-0.734 -6.804,-4.484 -7.991,-4.484 z"
           id="path3782"
           inkscape:connector-curvature="0"
           style="fill:#ffffff" /></g><g
         id="g3788"><path
           d="m 127.371,191.659 c 1.008,0.231 4.945,2.546 6.029,3.513 l 0.621,10.036 c -1.122,1 -4.916,3.256 -5.891,3.464 l -18.576,0.065 c -0.987,-0.204 -4.832,-2.448 -5.959,-3.438 l 0.447,-10.069 c 1.068,-0.971 4.944,-3.297 5.944,-3.535 l 17.385,-0.036 m 0.074,-1.53 v 0 l -17.539,0.035 c -1.178,0 -7.345,3.801 -7.372,4.543 l -0.491,11.057 c -0.034,0.75 6.193,4.504 7.451,4.504 l 18.704,-0.066 c 1.263,-0.004 7.425,-3.799 7.384,-4.545 l -0.683,-11.031 c -0.048,-0.741 -6.269,-4.497 -7.454,-4.497 z"
           id="path3786"
           inkscape:connector-curvature="0"
           style="fill:#ffffff" /></g><g
         id="g3792"><path
           d="m 92.902,191.659 c 0.958,0.243 4.414,2.428 5.438,3.404 l -0.593,10.073 c -1.169,0.986 -5.459,3.386 -6.481,3.59 l -18.576,0.069 c -0.935,-0.21 -4.307,-2.324 -5.371,-3.322 l 1.655,-10.116 c 1.11,-0.957 5.502,-3.428 6.549,-3.657 l 17.379,-0.041 m 0.082,-1.53 c -10e-4,0 -10e-4,0 0,0 l -17.535,0.041 c -1.188,0.002 -7.803,3.809 -7.921,4.553 l -1.814,11.088 c -0.125,0.748 5.644,4.516 6.911,4.516 0,0 0.001,0 0.002,0 l 18.704,-0.07 c 1.256,-0.004 7.871,-3.811 7.916,-4.553 l 0.65,-11.061 c 0.043,-0.745 -5.73,-4.514 -6.913,-4.514 z"
           id="path3790"
           inkscape:connector-curvature="0"
           style="fill:#ffffff" /></g><g
         id="g3796"><path
           d="m 126.27,150.372 c 0.907,0.269 4.121,2.314 5.049,3.188 l 0.574,9.287 c -0.962,0.896 -4.034,2.863 -4.91,3.11 l -16.003,0.027 c -0.883,-0.239 -4.011,-2.21 -4.978,-3.104 l 0.413,-9.314 c 0.914,-0.873 4.073,-2.912 4.976,-3.187 l 14.879,-0.007 m 0.107,-1.53 -15.101,0.008 c -1.02,0.004 -6.343,3.516 -6.371,4.213 l -0.455,10.264 c -0.035,0.696 5.341,4.189 6.438,4.189 10e-4,0 0.002,0 0.003,0 l 16.194,-0.027 c 1.088,-0.008 6.412,-3.521 6.367,-4.211 l -0.634,-10.242 c -0.04,-0.69 -5.412,-4.194 -6.441,-4.194 z"
           id="path3794"
           inkscape:connector-curvature="0"
           style="fill:#ffffff" /></g><g
         id="g3800"><path
           d="m 96.698,150.372 c 0.856,0.281 3.636,2.194 4.501,3.069 l -0.543,9.326 c -1.016,0.894 -4.539,3 -5.461,3.235 l -16.005,0.035 c -0.828,-0.248 -3.529,-2.09 -4.428,-2.983 l 1.528,-9.363 c 0.962,-0.864 4.573,-3.04 5.526,-3.308 l 14.882,-0.011 m 0.12,-1.53 -15.107,0.012 c -1.016,0 -6.757,3.521 -6.87,4.217 L 73.16,163.37 c -0.117,0.693 4.83,4.199 5.93,4.199 10e-4,0 10e-4,0 0.002,0 l 16.192,-0.035 c 1.093,0 6.832,-3.525 6.873,-4.215 l 0.598,-10.273 c 0.044,-0.694 -4.919,-4.204 -5.937,-4.204 z"
           id="path3798"
           inkscape:connector-curvature="0"
           style="fill:#ffffff" /></g><g
         id="g3804"><path
           d="m 140.866,150.372 14.885,0.012 c 0.954,0.268 4.566,2.442 5.527,3.307 l 1.53,9.362 c -0.901,0.895 -3.604,2.737 -4.433,2.985 l -16.004,-0.035 c -0.922,-0.236 -4.444,-2.343 -5.46,-3.236 l -0.542,-9.325 c 0.864,-0.874 3.639,-2.786 4.497,-3.07 m -0.122,-1.53 c -1.01,0 -5.975,3.51 -5.93,4.203 l 0.597,10.273 c 0.044,0.689 5.78,4.215 6.872,4.215 l 16.191,0.035 c 0.001,0 0.001,0 0.002,0 1.1,0 6.045,-3.506 5.934,-4.199 l -1.683,-10.299 c -0.109,-0.695 -5.857,-4.217 -6.872,-4.217 z"
           id="path3802"
           inkscape:connector-curvature="0"
           style="fill:#ffffff" /></g><path
         stroke-miterlimit="10"
         d="m 180.865,208.584 c -0.125,2.766 -2.446,6.143 -6.184,6.143 l -112.393,0.689 c -4.338,-0.031 -6.27,-3.725 -6.345,-6.004"
         id="path3806"
         inkscape:connector-curvature="0"
         style="fill:none;stroke:#ffffff;stroke-width:2.55500007;stroke-linecap:round;stroke-linejoin:round;stroke-miterlimit:10" /></g></g></svg>