<?xml version="1.0" encoding="UTF-8" standalone="no"?>
<!-- Generator: Adobe Illustrator 16.0.0, SVG Export Plug-In . SVG Version: 6.00 Build 0)  -->

<svg
   xmlns:dc="http://purl.org/dc/elements/1.1/"
   xmlns:cc="http://creativecommons.org/ns#"
   xmlns:rdf="http://www.w3.org/1999/02/22-rdf-syntax-ns#"
   xmlns:svg="http://www.w3.org/2000/svg"
   xmlns="http://www.w3.org/2000/svg"
   xmlns:sodipodi="http://sodipodi.sourceforge.net/DTD/sodipodi-0.dtd"
   xmlns:inkscape="http://www.inkscape.org/namespaces/inkscape"
   version="1.1"
   x="0px"
   y="0px"
   width="152.03358"
   height="126.06343"
   viewBox="0 0 152.03359 126.06343"
   enable-background="new 0 0 236.84 290"
   xml:space="preserve"
   id="svg58"
   sodipodi:docname="Icon_9-01_12.svg"
   inkscape:version="0.92.1 r15371"><metadata
     id="metadata64"><rdf:RDF><cc:Work
         rdf:about=""><dc:format>image/svg+xml</dc:format><dc:type
           rdf:resource="http://purl.org/dc/dcmitype/StillImage" /><dc:title></dc:title></cc:Work></rdf:RDF></metadata><defs
     id="defs62"><clipPath
       clipPathUnits="userSpaceOnUse"
       id="clipPath99"><rect
         style="fill:#00ff00;fill-opacity:0.26035503"
         id="rect101"
         width="152.03358"
         height="126.06343"
         x="43.283581"
         y="83.861938" /></clipPath></defs><sodipodi:namedview
     pagecolor="#ffffff"
     bordercolor="#666666"
     borderopacity="1"
     objecttolerance="10"
     gridtolerance="10"
     guidetolerance="10"
     inkscape:pageopacity="0"
     inkscape:pageshadow="2"
     inkscape:window-width="1366"
     inkscape:window-height="705"
     id="namedview60"
     showgrid="false"
     inkscape:zoom="1.8482759"
     inkscape:cx="75.136419"
     inkscape:cy="64.925369"
     inkscape:window-x="-8"
     inkscape:window-y="-8"
     inkscape:window-maximized="1"
     inkscape:current-layer="svg58" /><g
     id="Background"
     transform="translate(-43.283581,-83.861938)"><rect
       x="-3.1600001"
       y="-4"
       width="243"
       height="296"
       id="rect10"
       clip-path="url(#clipPath99)"
       style="fill:none" /></g><g
     id="Icon"
     transform="translate(-41.119402,-83.861938)"><g
       id="g55"><g
         id="g51"><path
           stroke-miterlimit="10"
           d="m 144.362,97.629 h 8.598 v -2.595 c 0,-2.122 1.295,-3.847 2.891,-3.847 h 9.771 c 1.592,0 2.885,1.725 2.885,3.847 v 2.595 h 8.598 c 1.6,0 2.893,1.72 2.893,3.842 v 93.498 c 0,2.123 -1.293,3.844 -2.893,3.844 h -32.742 c -1.602,0 -2.895,-1.721 -2.895,-3.844 v -93.498 c -10e-4,-2.122 1.292,-3.842 2.894,-3.842"
           id="path13"
           inkscape:connector-curvature="0"
           style="fill:none;stroke:#ffffff;stroke-width:2.555;stroke-linecap:round;stroke-linejoin:round;stroke-miterlimit:10" /><path
           stroke-miterlimit="10"
           d="m 102.047,97.629 h 8.601 v -2.595 c 0,-2.122 1.293,-3.847 2.889,-3.847 h 9.769 c 1.596,0 2.893,1.725 2.893,3.847 v 2.595 h 8.596 c 1.602,0 2.895,1.72 2.895,3.842 v 93.498 c 0,2.123 -1.293,3.844 -2.895,3.844 h -32.747 c -1.595,0 -2.893,-1.721 -2.893,-3.844 v -93.498 c -0.001,-2.122 1.297,-3.842 2.892,-3.842"
           id="path15"
           inkscape:connector-curvature="0"
           style="fill:none;stroke:#ffffff;stroke-width:2.555;stroke-linecap:round;stroke-linejoin:round;stroke-miterlimit:10" /><path
           stroke-miterlimit="10"
           d="m 59.737,97.629 h 8.597 v -2.595 c 0,-2.122 1.297,-3.847 2.893,-3.847 h 9.77 c 1.596,0 2.889,1.725 2.889,3.847 v 2.595 h 8.601 c 1.596,0 2.894,1.72 2.894,3.842 v 93.498 c 0,2.123 -1.298,3.844 -2.894,3.844 h -32.75 c -1.599,0 -2.894,-1.721 -2.894,-3.844 v -93.498 c 10e-4,-2.122 1.295,-3.842 2.894,-3.842"
           id="path17"
           inkscape:connector-curvature="0"
           style="fill:none;stroke:#ffffff;stroke-width:2.555;stroke-linecap:round;stroke-linejoin:round;stroke-miterlimit:10" /><g
           id="g21"><path
             d="m 90.956,182.597 v 11.264 H 61.267 v -11.264 h 29.689 m 1.529,-1.531 H 59.737 v 14.324 h 32.748 z"
             id="path19"
             inkscape:connector-curvature="0"
             style="fill:#ffffff" /></g><g
           id="g25"><path
             d="m 90.956,166.595 v 11.264 H 61.267 v -11.264 h 29.689 m 1.529,-1.531 H 59.737 v 14.324 h 32.748 z"
             id="path23"
             inkscape:connector-curvature="0"
             style="fill:#ffffff" /></g><g
           id="g29"><path
             d="m 175.578,182.597 v 11.264 h -29.689 v -11.264 h 29.689 m 1.53,-1.531 h -32.75 v 14.324 h 32.75 z"
             id="path27"
             inkscape:connector-curvature="0"
             style="fill:#ffffff" /></g><g
           id="g33"><path
             d="m 175.578,166.595 v 11.264 h -29.689 v -11.264 h 29.689 m 1.53,-1.531 h -32.75 v 14.324 h 32.75 z"
             id="path31"
             inkscape:connector-curvature="0"
             style="fill:#ffffff" /></g><g
           id="g37"><path
             d="m 90.956,150.593 v 11.264 H 61.267 v -11.264 h 29.689 m 1.529,-1.531 H 59.737 v 14.324 h 32.748 z"
             id="path35"
             inkscape:connector-curvature="0"
             style="fill:#ffffff" /></g><g
           id="g41"><path
             d="m 90.956,134.588 v 11.266 H 61.267 v -11.266 h 29.689 m 1.529,-1.529 H 59.737 v 14.326 h 32.748 z"
             id="path39"
             inkscape:connector-curvature="0"
             style="fill:#ffffff" /></g><g
           id="g45"><path
             d="m 90.956,118.586 v 11.266 H 61.267 v -11.266 h 29.689 m 1.529,-1.529 H 59.737 v 14.325 h 32.748 z"
             id="path43"
             inkscape:connector-curvature="0"
             style="fill:#ffffff" /></g><g
           id="g49"><path
             d="m 90.956,102.584 v 11.265 H 61.267 v -11.265 h 29.689 m 1.529,-1.529 H 59.737 v 14.324 h 32.748 z"
             id="path47"
             inkscape:connector-curvature="0"
             style="fill:#ffffff" /></g></g><polygon
         points="126.833,143.539 116.126,138.455 124.283,124.221 117.4,122.527 110.008,143.875 120.457,147.262 112.812,177.764 "
         id="polygon53"
         style="fill:#ffffff" /></g></g></svg>