<?xml version="1.0" encoding="UTF-8" standalone="no"?>
<svg
   xmlns:dc="http://purl.org/dc/elements/1.1/"
   xmlns:cc="http://creativecommons.org/ns#"
   xmlns:rdf="http://www.w3.org/1999/02/22-rdf-syntax-ns#"
   xmlns:svg="http://www.w3.org/2000/svg"
   xmlns="http://www.w3.org/2000/svg"
   version="1.1"
   id="svg5941"
   viewBox="0 0 33.58 36.30975"
   height="10.247418mm"
   width="9.4770222mm">
  <defs
     id="defs5943" />
  <metadata
     id="metadata5946">
    <rdf:RDF>
      <cc:Work
         rdf:about="">
        <dc:format>image/svg+xml</dc:format>
        <dc:type
           rdf:resource="http://purl.org/dc/dcmitype/StillImage" />
        <dc:title></dc:title>
      </cc:Work>
    </rdf:RDF>
  </metadata>
  <g
     transform="translate(-226.06714,-279.92162)"
     id="layer1">
    <path
       id="path5688"
       style="fill:#ffffff;fill-opacity:1;fill-rule:evenodd;stroke:none"
       d="m 254.49839,286.25912 c -1.255,-0.004 -2.51125,0 -3.76375,0 l -0.2575,0 0.33625,-0.4825 c 0.95125,-1.35625 1.90375,-2.71375 2.85375,-4.06875 0.28375,-0.4 0.57125,-0.7975 0.85375,-1.1975 0.16125,-0.23125 0.12625,-0.4225 -0.1075,-0.58875 l -5.96,0 -0.28125,0.3225 c -1.7175,3.09 -3.43125,6.1825 -5.145,9.275 l -0.115,0.20375 0,0.1475 c 0.09,0.2025 0.26,0.265 0.495,0.265 1.08,-0.004 2.1625,-0.004 3.245,-0.004 l 0.235,0 c -0.245,0.53 -0.47875,1.04125 -0.715,1.5525 -0.31625,0.675 -0.63,1.34875 -0.9475,2.0275 -0.2775,0.59375 -0.5575,1.18625 -0.835,1.77875 -0.3425,0.72875 -0.6825,1.46625 -1.025,2.19625 -0.14875,0.31875 -0.3,0.63125 -0.4525,0.94625 l 0,0.41 0.495,0 c 0.2175,-0.20625 0.44375,-0.405 0.65125,-0.61625 0.265,-0.2725 0.5125,-0.5525 0.76875,-0.83375 0.4125,-0.445 0.82625,-0.89 1.24375,-1.33375 0.32875,-0.355 0.6625,-0.7025 0.99,-1.05375 0.33375,-0.35125 0.65875,-0.71375 0.99125,-1.0675 0.32375,-0.34875 0.655,-0.69125 0.97875,-1.0375 0.34125,-0.3675 0.675,-0.7375 1.0175,-1.1 0.34,-0.36375 0.68625,-0.715 1.02375,-1.0775 0.4075,-0.43625 0.80625,-0.8775 1.21125,-1.31 0.41,-0.4375 0.825,-0.865 1.2325,-1.3025 0.39375,-0.41875 0.78,-0.84625 1.16625,-1.27125 l 0.2575,-0.3025 c 0.0975,-0.29 -0.09,-0.4775 -0.44125,-0.4775" />
    <path
       id="path5692"
       style="fill:#ffffff;fill-opacity:1;fill-rule:nonzero;stroke:none"
       d="m 231.85139,289.48049 -3.12375,0 -0.9675,16.2475 5.0575,0 -0.96625,-16.2475 z" />
    <path
       id="path5696"
       style="fill:#ffffff;fill-opacity:1;fill-rule:nonzero;stroke:none"
       d="m 239.88902,289.48049 -3.12375,0 -0.96625,16.2475 5.05875,0 -0.96875,-16.2475 z" />
    <path
       id="path5698"
       style="fill:#ffffff;fill-opacity:1;fill-rule:nonzero;stroke:none"
       d="m 257.67714,307.89262 -5.5225,0 0,-3.225 5.5225,0 0,3.225 z m 0,5.5925 -5.5225,0 0,-3.225 5.5225,0 0,3.225 z m -8.04,-5.5925 -5.5225,0 0,-3.225 5.5225,0 0,3.225 z m 0,5.5925 -5.5225,0 0,-3.225 5.5225,0 0,3.225 z m -8.0375,0 -5.52375,0 0,-3.225 5.52375,0 0,3.225 z m -8.04,0 -5.5225,0 0,-3.225 5.5225,0 0,3.225 z m 8.635,-12.8475 0,6.87625 -16.1275,0 0,8.7175 33.58,0 0,-18.38125 -17.4525,2.7875 z" />
  </g>
</svg>
