<?xml version="1.0" encoding="UTF-8" standalone="no"?>
<svg
   xmlns:dc="http://purl.org/dc/elements/1.1/"
   xmlns:cc="http://creativecommons.org/ns#"
   xmlns:rdf="http://www.w3.org/1999/02/22-rdf-syntax-ns#"
   xmlns:svg="http://www.w3.org/2000/svg"
   xmlns="http://www.w3.org/2000/svg"
   version="1.1"
   id="svg5850"
   viewBox="0 0 34.154501 33.875098"
   height="9.5603056mm"
   width="9.6391592mm">
  <defs
     id="defs5852" />
  <metadata
     id="metadata5855">
    <rdf:RDF>
      <cc:Work
         rdf:about="">
        <dc:format>image/svg+xml</dc:format>
        <dc:type
           rdf:resource="http://purl.org/dc/dcmitype/StillImage" />
        <dc:title></dc:title>
      </cc:Work>
    </rdf:RDF>
  </metadata>
  <g
     transform="translate(-188.63754,-421.13899)"
     id="layer1">
    <path
       id="path5660"
       style="fill:#ffffff;fill-opacity:1;fill-rule:nonzero;stroke:none"
       d="m 192.63929,440.47024 2.235,-15.61375 21.6775,0 2.23375,15.61375 -26.14625,0 z m 30.11875,1.51 -2.755,-19.245 c -0.13125,-0.915 -0.915,-1.59625 -1.84125,-1.59625 l -24.9,0 c -0.92375,0 -1.7075,0.68125 -1.83875,1.59625 l -2.7675,19.32875 -0.006,0.0563 -0.002,0.0275 -0.009,0.16625 -0.001,0.0138 0,3.0725 c 0,1.03 0.8325,1.86 1.86,1.86 l 11.31125,0 0,3.8075 -3.36,0 c -1.08875,0 -1.97125,0.88 -1.97125,1.9725 0,1.08875 0.8825,1.97375 1.97125,1.97375 l 14.53125,0 c 1.0875,0 1.97375,-0.885 1.97375,-1.97375 0,-1.0925 -0.88625,-1.9725 -1.97375,-1.9725 l -3.35875,0 0,-3.8075 11.31,0 c 1.02625,0 1.85875,-0.83 1.85875,-1.86 l 0,-3.0375 0.002,-0.035 -0.0337,-0.3475 z" />
    <path
       id="path5664"
       style="fill:#ffffff;fill-opacity:1;fill-rule:nonzero;stroke:none"
       d="m 203.37229,431.8125 4.6825,0 0.32125,-0.14 0.11875,-0.33125 -0.30125,-4.84125 c -0.0163,-0.23375 -0.20875,-0.4125 -0.44,-0.4125 l -4.07875,0 c -0.23375,0 -0.42625,0.17875 -0.44,0.4125 l -0.305,4.84125 0.12,0.33125 0.3225,0.14 z" />
    <path
       id="path5668"
       style="fill:#ffffff;fill-opacity:1;fill-rule:nonzero;stroke:none"
       d="m 214.89754,431.8125 0.33625,-0.1525 0.10125,-0.355 -0.69125,-4.84 c -0.0325,-0.2175 -0.2175,-0.3775 -0.4375,-0.3775 l -3.90125,0 -0.32125,0.13875 -0.11875,0.32875 0.3025,4.84 c 0.015,0.23375 0.20625,0.4175 0.44,0.4175 l 4.29,0 z" />
    <path
       id="path5672"
       style="fill:#ffffff;fill-opacity:1;fill-rule:nonzero;stroke:none"
       d="m 208.21291,433.47749 -5,0 c -0.23375,0 -0.425,0.18 -0.44125,0.41375 l -0.3025,4.84 0.11875,0.33125 0.3225,0.13625 5.6075,0 0.32,-0.13625 0.12,-0.33125 -0.30375,-4.84 c -0.0137,-0.23375 -0.2075,-0.41375 -0.44125,-0.41375" />
    <path
       id="path5676"
       style="fill:#ffffff;fill-opacity:1;fill-rule:nonzero;stroke:none"
       d="m 215.70079,433.85587 c -0.0312,-0.21875 -0.2175,-0.37875 -0.43625,-0.37875 l -4.4975,0 -0.32125,0.1375 -0.11875,0.33125 0.30125,4.84 c 0.015,0.2325 0.2075,0.4125 0.44125,0.4125 l 4.885,0 0.335,-0.1525 0.10375,-0.35 -0.6925,-4.84 z" />
    <path
       id="path5680"
       style="fill:#ffffff;fill-opacity:1;fill-rule:nonzero;stroke:none"
       d="m 200.65866,433.47749 -4.49625,0 c -0.21875,0 -0.405,0.16 -0.43625,0.37875 l -0.6925,4.84 0.10375,0.35 0.33375,0.1525 4.88625,0 c 0.2325,0 0.425,-0.18 0.44,-0.4125 l 0.3025,-4.84 -0.12,-0.3325 -0.32125,-0.13625 z" />
    <path
       id="path5684"
       style="fill:#ffffff;fill-opacity:1;fill-rule:nonzero;stroke:none"
       d="m 201.12129,426.08737 -3.9,0 c -0.22,0 -0.40625,0.16 -0.4375,0.3775 l -0.6925,4.84 0.1025,0.355 0.335,0.1525 4.29,0 c 0.2325,0 0.42625,-0.18375 0.44,-0.4175 l 0.3025,-4.84 -0.1175,-0.32875 -0.3225,-0.13875 z" />
  </g>
</svg>
