<?xml version="1.0" encoding="UTF-8" standalone="no"?>
<svg
   xmlns:dc="http://purl.org/dc/elements/1.1/"
   xmlns:cc="http://creativecommons.org/ns#"
   xmlns:rdf="http://www.w3.org/1999/02/22-rdf-syntax-ns#"
   xmlns:svg="http://www.w3.org/2000/svg"
   xmlns="http://www.w3.org/2000/svg"
   version="1.1"
   id="svg4900"
   viewBox="0 0 42.62625 32.639998"
   height="9.2117329mm"
   width="12.030075mm">
  <defs
     id="defs4902" />
  <metadata
     id="metadata4905">
    <rdf:RDF>
      <cc:Work
         rdf:about="">
        <dc:format>image/svg+xml</dc:format>
        <dc:type
           rdf:resource="http://purl.org/dc/dcmitype/StillImage" />
        <dc:title></dc:title>
      </cc:Work>
    </rdf:RDF>
  </metadata>
  <g
     transform="translate(-241.54402,-396.0422)"
     id="layer1">
    <path
       id="path4387"
       style="fill:#ffffff;fill-opacity:1;fill-rule:nonzero;stroke:none"
       d="m 283.48777,398.80095 -6.5425,0 0,-2.07625 c 0,-0.37875 -0.30625,-0.6825 -0.6825,-0.6825 l -4.68,0 c -0.3775,0 -0.68375,0.30375 -0.68375,0.6825 l 0,2.07625 -16.0825,0 0,-2.07625 c 0,-0.37875 -0.30625,-0.6825 -0.68375,-0.6825 l -4.68,0 c -0.375,0 -0.6825,0.30375 -0.6825,0.6825 l 0,2.07625 -6.5425,0 c -0.37875,0 -0.68375,0.305 -0.68375,0.6825 l 0,4.3525 c 0,0.38125 0.305,0.68625 0.68375,0.68625 l 41.26,0 c 0.3775,0 0.6825,-0.305 0.6825,-0.68625 l 0,-4.3525 c 0,-0.3775 -0.305,-0.6825 -0.6825,-0.6825" />
    <path
       id="path4391"
       style="fill:#ffffff;fill-opacity:1;fill-rule:nonzero;stroke:none"
       d="m 258.66602,418.7497 2.075,-6.63125 0.26125,-0.19125 3.23375,0 0.22,0.11375 0.0412,0.24625 -1.265,3.89875 3.55625,0 0.23875,0.14625 -0.01,0.27625 -4.74875,7.37125 -0.23,0.12 -0.0975,-0.015 -0.1725,-0.30125 0.7675,-4.67875 -3.61,0 -0.2175,-0.11 -0.0425,-0.245 z m -14.2225,9.0475 c 0,0.4875 0.395,0.885 0.88375,0.885 l 35.06,0 c 0.48875,0 0.88375,-0.3975 0.88375,-0.885 l 0,-20.94625 -36.8275,0 0,20.94625 z" />
  </g>
</svg>
