<?xml version="1.0" encoding="UTF-8" standalone="no"?>
<!-- Generator: Adobe Illustrator 16.0.0, SVG Export Plug-In . SVG Version: 6.00 Build 0)  -->

<svg
   xmlns:dc="http://purl.org/dc/elements/1.1/"
   xmlns:cc="http://creativecommons.org/ns#"
   xmlns:rdf="http://www.w3.org/1999/02/22-rdf-syntax-ns#"
   xmlns:svg="http://www.w3.org/2000/svg"
   xmlns="http://www.w3.org/2000/svg"
   xmlns:sodipodi="http://sodipodi.sourceforge.net/DTD/sodipodi-0.dtd"
   xmlns:inkscape="http://www.inkscape.org/namespaces/inkscape"
   version="1.1"
   x="0px"
   y="0px"
   width="177.87288"
   height="137.48305"
   viewBox="0 0 177.87288 137.48305"
   enable-background="new 0 0 236.84 290"
   xml:space="preserve"
   id="svg3747"
   sodipodi:docname="Icon_7-01_12.svg"
   inkscape:version="0.92.1 r15371"><metadata
     id="metadata3753"><rdf:RDF><cc:Work
         rdf:about=""><dc:format>image/svg+xml</dc:format><dc:type
           rdf:resource="http://purl.org/dc/dcmitype/StillImage" /><dc:title></dc:title></cc:Work></rdf:RDF></metadata><defs
     id="defs3751" /><sodipodi:namedview
     pagecolor="#ffffff"
     bordercolor="#666666"
     borderopacity="1"
     objecttolerance="10"
     gridtolerance="10"
     guidetolerance="10"
     inkscape:pageopacity="0"
     inkscape:pageshadow="2"
     inkscape:window-width="1366"
     inkscape:window-height="705"
     id="namedview3749"
     showgrid="false"
     inkscape:zoom="0.8137931"
     inkscape:cx="277.72729"
     inkscape:cy="70.355931"
     inkscape:window-x="-8"
     inkscape:window-y="-8"
     inkscape:window-maximized="1"
     inkscape:current-layer="svg3747" /><g
     id="Background"
     transform="matrix(0.73198716,0,0,0.46446976,2.3130795,1.857879)"><rect
       x="-3.1600001"
       y="-4"
       width="243"
       height="296"
       id="rect3711"
       style="fill:none" /></g><g
     id="Icon"
     transform="translate(-27.560339,-75.872882)"><g
       id="g3744"><path
         stroke-miterlimit="10"
         d="m 169.892,193.684 v -52.751 c 0,-5.318 -4.355,-9.672 -9.674,-9.672 h -8.484 l 3.393,-34.699 c 0.555,-5.678 5.326,-10.005 11.029,-10.005 h 11.898 c 5.705,0 10.477,4.327 11.029,10.005 l 10.445,106.882 H 144.68 l 0.01,-0.086 h 15.527 c 5.32,-0.001 9.675,-4.354 9.675,-9.674 z"
         id="path3714"
         inkscape:connector-curvature="0"
         style="fill:none;stroke:#ffffff;stroke-width:2.555;stroke-linecap:round;stroke-linejoin:round;stroke-miterlimit:10" /><path
         stroke-miterlimit="10"
         d="m 77.637,131.261 v -0.613 l 18.026,-18.024 c 3.942,-3.943 10.689,-1.152 10.689,4.426 v 12.963 l -1.248,1.249 H 77.637 Z"
         id="path3716"
         inkscape:connector-curvature="0"
         style="fill:none;stroke:#ffffff;stroke-width:2.555;stroke-linecap:round;stroke-linejoin:round;stroke-miterlimit:10" /><path
         stroke-miterlimit="10"
         d="m 48.314,131.261 18.633,-18.638 c 3.944,-3.943 10.69,-1.152 10.69,4.426 v 13.599 0.613 z"
         id="path3718"
         inkscape:connector-curvature="0"
         style="fill:none;stroke:#ffffff;stroke-width:2.555;stroke-linecap:round;stroke-linejoin:round;stroke-miterlimit:10" /><path
         stroke-miterlimit="10"
         d="m 105.105,131.261 1.248,-1.249 17.388,-17.389 c 3.944,-3.943 10.69,-1.152 10.69,4.426 v 14.212 z"
         id="path3720"
         inkscape:connector-curvature="0"
         style="fill:none;stroke:#ffffff;stroke-width:2.555;stroke-linecap:round;stroke-linejoin:round;stroke-miterlimit:10" /><path
         stroke-miterlimit="10"
         d="m 37.312,140.933 v 52.751 c 0,5.32 4.354,9.674 9.672,9.674 h 97.707 15.527 c 5.318,0 9.674,-4.354 9.674,-9.674 v -52.751 c 0,-5.318 -4.355,-9.672 -9.674,-9.672 h -8.484 -17.303 -29.326 -27.468 -29.323 -1.33 c -5.318,0 -9.672,4.353 -9.672,9.672 z m 124.084,21.399 h -16.445 v -20.373 h 16.445 z m -16.445,30.106 v -20.379 h 16.445 v 20.379 z m -24.659,-20.379 h 16.441 v 20.379 h -16.441 z m 0,-30.1 h 16.441 v 20.373 h -16.441 z m -24.662,30.1 h 16.441 v 20.379 H 95.63 Z m 0,-30.1 h 16.441 v 20.373 H 95.63 Z m -24.662,30.1 H 87.41 v 20.379 H 70.968 Z m 0,-30.1 H 87.41 v 20.373 H 70.968 Z m -24.662,30.1 h 16.439 v 20.379 H 46.306 Z m 0,-30.1 h 16.439 v 20.373 H 46.306 Z"
         id="path3722"
         inkscape:connector-curvature="0"
         style="fill:none;stroke:#ffffff;stroke-width:2.555;stroke-linecap:round;stroke-linejoin:round;stroke-miterlimit:10" /><rect
         x="144.951"
         y="141.959"
         stroke-miterlimit="10"
         width="16.445"
         height="20.372999"
         id="rect3724"
         style="fill:none;stroke:#ffffff;stroke-width:2.555;stroke-linecap:round;stroke-linejoin:round;stroke-miterlimit:10" /><rect
         x="120.292"
         y="141.959"
         stroke-miterlimit="10"
         width="16.441"
         height="20.372999"
         id="rect3726"
         style="fill:none;stroke:#ffffff;stroke-width:2.555;stroke-linecap:round;stroke-linejoin:round;stroke-miterlimit:10" /><rect
         x="95.629997"
         y="141.959"
         stroke-miterlimit="10"
         width="16.441"
         height="20.372999"
         id="rect3728"
         style="fill:none;stroke:#ffffff;stroke-width:2.555;stroke-linecap:round;stroke-linejoin:round;stroke-miterlimit:10" /><rect
         x="70.968002"
         y="141.959"
         stroke-miterlimit="10"
         width="16.441"
         height="20.372999"
         id="rect3730"
         style="fill:none;stroke:#ffffff;stroke-width:2.555;stroke-linecap:round;stroke-linejoin:round;stroke-miterlimit:10" /><rect
         x="46.306"
         y="141.959"
         stroke-miterlimit="10"
         width="16.438999"
         height="20.372999"
         id="rect3732"
         style="fill:none;stroke:#ffffff;stroke-width:2.555;stroke-linecap:round;stroke-linejoin:round;stroke-miterlimit:10" /><rect
         x="144.951"
         y="172.05901"
         stroke-miterlimit="10"
         width="16.445"
         height="20.379"
         id="rect3734"
         style="fill:none;stroke:#ffffff;stroke-width:2.555;stroke-linecap:round;stroke-linejoin:round;stroke-miterlimit:10" /><rect
         x="120.292"
         y="172.05901"
         stroke-miterlimit="10"
         width="16.441"
         height="20.379"
         id="rect3736"
         style="fill:none;stroke:#ffffff;stroke-width:2.555;stroke-linecap:round;stroke-linejoin:round;stroke-miterlimit:10" /><rect
         x="95.629997"
         y="172.05901"
         stroke-miterlimit="10"
         width="16.441"
         height="20.379"
         id="rect3738"
         style="fill:none;stroke:#ffffff;stroke-width:2.555;stroke-linecap:round;stroke-linejoin:round;stroke-miterlimit:10" /><rect
         x="70.968002"
         y="172.05901"
         stroke-miterlimit="10"
         width="16.441"
         height="20.379"
         id="rect3740"
         style="fill:none;stroke:#ffffff;stroke-width:2.555;stroke-linecap:round;stroke-linejoin:round;stroke-miterlimit:10" /><rect
         x="46.306"
         y="172.05901"
         stroke-miterlimit="10"
         width="16.438999"
         height="20.379"
         id="rect3742"
         style="fill:none;stroke:#ffffff;stroke-width:2.555;stroke-linecap:round;stroke-linejoin:round;stroke-miterlimit:10" /></g></g></svg>