<?xml version="1.0" encoding="UTF-8" standalone="no"?>
<svg
   xmlns:dc="http://purl.org/dc/elements/1.1/"
   xmlns:cc="http://creativecommons.org/ns#"
   xmlns:rdf="http://www.w3.org/1999/02/22-rdf-syntax-ns#"
   xmlns:svg="http://www.w3.org/2000/svg"
   xmlns="http://www.w3.org/2000/svg"
   version="1.1"
   id="svg4480"
   viewBox="0 0 33.165573 33.162139"
   height="9.3590927mm"
   width="9.3600616mm">
  <defs
     id="defs4482">
    <linearGradient
       id="linearGradient4235"
       spreadMethod="pad"
       gradientTransform="matrix(-14.5181,0,0,14.5181,34.974121,134.10986)"
       gradientUnits="userSpaceOnUse"
       y2="0"
       x2="1"
       y1="0"
       x1="0">
      <stop
         id="stop4237"
         offset="0"
         style="stop-opacity:1;stop-color:#ffffff" />
      <stop
         id="stop4239"
         offset="0.01428304"
         style="stop-opacity:1;stop-color:#ffffff" />
      <stop
         id="stop4241"
         offset="1"
         style="stop-opacity:1;stop-color:#f1f2f2" />
    </linearGradient>
    <linearGradient
       id="linearGradient4257"
       spreadMethod="pad"
       gradientTransform="matrix(-7.1054997,0,0,7.1054997,24.913574,134.10937)"
       gradientUnits="userSpaceOnUse"
       y2="0"
       x2="1"
       y1="0"
       x1="0">
      <stop
         id="stop4259"
         offset="0"
         style="stop-opacity:1;stop-color:#ffffff" />
      <stop
         id="stop4261"
         offset="0.01428304"
         style="stop-opacity:1;stop-color:#ffffff" />
      <stop
         id="stop4263"
         offset="1"
         style="stop-opacity:1;stop-color:#f1f2f2" />
    </linearGradient>
    <linearGradient
       id="linearGradient4213"
       spreadMethod="pad"
       gradientTransform="matrix(-26.5322,0,0,26.5322,39.674805,134.08789)"
       gradientUnits="userSpaceOnUse"
       y2="0"
       x2="1"
       y1="0"
       x1="0">
      <stop
         id="stop4215"
         offset="0"
         style="stop-opacity:1;stop-color:#ffffff" />
      <stop
         id="stop4217"
         offset="0.01428304"
         style="stop-opacity:1;stop-color:#ffffff" />
      <stop
         id="stop4219"
         offset="1"
         style="stop-opacity:1;stop-color:#f1f2f2" />
    </linearGradient>
  </defs>
  <metadata
     id="metadata4485">
    <rdf:RDF>
      <cc:Work
         rdf:about="">
        <dc:format>image/svg+xml</dc:format>
        <dc:type
           rdf:resource="http://purl.org/dc/dcmitype/StillImage" />
        <dc:title></dc:title>
      </cc:Work>
    </rdf:RDF>
  </metadata>
  <g
     transform="translate(-297.70293,-570.06685)"
     id="layer1">
    <g
       id="g4201"
       transform="matrix(1.25,0,0,-1.25,281.29239,754.2756)">
      <g
         id="g4203">
        <g
           id="g4209">
          <g
             id="g4211">
            <path
               id="path4221"
               style="fill:url(#linearGradient4213);stroke:none"
               d="m 21.942,146.593 c -3.335,-1.189 -6.009,-3.606 -7.527,-6.807 l 0,0 c -1.517,-3.198 -1.7,-6.798 -0.509,-10.134 l 0,0 c 1.189,-3.335 3.606,-6.009 6.806,-7.527 l 0,0 c 3.199,-1.52 6.799,-1.7 10.135,-0.51 l 0,0 c 3.336,1.19 6.01,3.606 7.526,6.805 l 0,0 c 1.52,3.201 1.7,6.8 0.511,10.136 l 0,0 c -0.1,0.281 -0.409,0.426 -0.69,0.327 l 0,0 c -0.281,-0.099 -0.427,-0.408 -0.327,-0.689 l 0,0 c 1.093,-3.064 0.926,-6.372 -0.468,-9.311 l 0,0 c -1.394,-2.94 -3.851,-5.158 -6.914,-6.252 l 0,0 c -3.066,-1.092 -6.371,-0.926 -9.311,0.468 l 0,0 c -2.94,1.395 -5.159,3.851 -6.252,6.915 l 0,0 c -1.093,3.064 -0.926,6.371 0.468,9.31 l 0,0 c 1.395,2.94 3.849,5.16 6.914,6.253 l 0,0 c 3.435,1.226 7.203,0.854 10.337,-1.017 l 0,0 c 0.257,-0.152 0.589,-0.07 0.74,0.188 l 0,0 c 0.154,0.255 0.069,0.586 -0.186,0.739 l 0,0 c -2.087,1.246 -4.431,1.88 -6.794,1.88 l 0,0 c -1.5,0 -3.007,-0.257 -4.459,-0.774" />
          </g>
        </g>
      </g>
    </g>
    <g
       id="g4223"
       transform="matrix(1.25,0,0,-1.25,281.29239,754.2756)">
      <g
         id="g4225">
        <g
           id="g4231">
          <g
             id="g4233">
            <path
               id="path4243"
               style="fill:url(#linearGradient4235);stroke:none"
               d="m 20.459,134.104 c -0.001,-0.297 0.241,-0.54 0.539,-0.54 l 0,0 13.44,0 c 0.298,0 0.539,0.243 0.539,0.54 l 0,0 c 0.001,0.298 -0.241,0.54 -0.538,0.54 l 0,0 -13.441,0 c -0.001,0 -0.002,0 -0.003,0 l 0,0 c -0.297,0 -0.536,-0.243 -0.536,-0.54" />
          </g>
        </g>
      </g>
    </g>
    <g
       id="g4245"
       transform="matrix(1.25,0,0,-1.25,281.29239,754.2756)">
      <g
         id="g4247">
        <g
           id="g4253">
          <g
             id="g4255">
            <path
               id="path4265"
               style="fill:url(#linearGradient4257);stroke:none"
               d="m 23.995,140.512 -6.026,-6.026 c -0.21,-0.211 -0.21,-0.552 0,-0.763 l 0,0 6.026,-6.026 c 0.212,-0.211 0.553,-0.211 0.764,0 l 0,0 c 0.211,0.211 0.211,0.551 0,0.762 l 0,0 -5.645,5.645 5.645,5.644 c 0.211,0.212 0.211,0.553 0,0.764 l 0,0 c -0.104,0.105 -0.244,0.157 -0.381,0.157 l 0,0 c -0.138,0 -0.278,-0.052 -0.383,-0.157" />
          </g>
        </g>
      </g>
    </g>
  </g>
</svg>
