<svg
   xmlns:dc="http://purl.org/dc/elements/1.1/"
   xmlns:cc="http://creativecommons.org/ns#"
   xmlns:rdf="http://www.w3.org/1999/02/22-rdf-syntax-ns#"
   xmlns:svg="http://www.w3.org/2000/svg"
   xmlns="http://www.w3.org/2000/svg"
   version="1.1"
   id="svg4670"
   viewBox="0 0 33.16638 33.161251"
   height="9.3588419mm"
   width="9.3602896mm">
  <defs
     id="defs4672">
    <linearGradient
       id="linearGradient4191"
       spreadMethod="pad"
       gradientTransform="matrix(7.1054997,0,0,-7.1054997,413.56787,134.64209)"
       gradientUnits="userSpaceOnUse"
       y2="0"
       x2="1"
       y1="0"
       x1="0">
      <stop
         id="stop4193"
         offset="0"
         style="stop-opacity:1;stop-color:#ffffff" />
      <stop
         id="stop4195"
         offset="0.01428304"
         style="stop-opacity:1;stop-color:#ffffff" />
      <stop
         id="stop4197"
         offset="1"
         style="stop-opacity:1;stop-color:#f1f2f2" />
    </linearGradient>
    <linearGradient
       id="linearGradient4169"
       spreadMethod="pad"
       gradientTransform="matrix(14.5186,0,0,-14.5186,403.50439,134.6333)"
       gradientUnits="userSpaceOnUse"
       y2="0"
       x2="1"
       y1="0"
       x1="0">
      <stop
         id="stop4171"
         offset="0"
         style="stop-opacity:1;stop-color:#ffffff" />
      <stop
         id="stop4173"
         offset="0.01428304"
         style="stop-opacity:1;stop-color:#ffffff" />
      <stop
         id="stop4175"
         offset="1"
         style="stop-opacity:1;stop-color:#f1f2f2" />
    </linearGradient>
    <linearGradient
       id="linearGradient4147"
       spreadMethod="pad"
       gradientTransform="matrix(33.165875,0,0,33.165875,334.84113,472.37862)"
       gradientUnits="userSpaceOnUse"
       y2="0"
       x2="1"
       y1="0"
       x1="0">
      <stop
         id="stop4149"
         offset="0"
         style="stop-opacity:1;stop-color:#ffffff" />
      <stop
         id="stop4151"
         offset="0.01428304"
         style="stop-opacity:1;stop-color:#ffffff" />
      <stop
         id="stop4153"
         offset="1"
         style="stop-opacity:1;stop-color:#f1f2f2" />
    </linearGradient>
  </defs>
  <metadata
     id="metadata4675">
    <rdf:RDF>
      <cc:Work
         rdf:about="">
        <dc:format>image/svg+xml</dc:format>
        <dc:type
           rdf:resource="http://purl.org/dc/dcmitype/StillImage" />
        <dc:title></dc:title>
      </cc:Work>
    </rdf:RDF>
  </metadata>
  <g
     transform="translate(-334.84538,-455.78158)"
     id="layer1">
    <path
       id="path4155"
       style="fill:url(#linearGradient4147);stroke:none"
       d="m 345.86377,456.75283 c -4.17,1.48625 -7.51125,4.5075 -9.40875,8.5075 l 0,0 c -1.9,3.99875 -2.125,8.49875 -0.6375,12.67 l 0,0 c 0.125,0.34875 0.51,0.53125 0.8625,0.40625 l 0,0 c 0.35,-0.12375 0.5325,-0.50875 0.40625,-0.86125 l 0,0 c -1.36375,-3.8275 -1.15625,-7.9625 0.58625,-11.6375 l 0,0 c 1.74375,-3.67375 4.8125,-6.44875 8.64375,-7.815 l 0,0 c 3.83,-1.36625 7.96375,-1.15625 11.6375,0.58625 l 0,0 c 3.675,1.7425 6.45,4.81125 7.815,8.6425 l 0,0 c 1.365,3.83 1.15875,7.96375 -0.585,11.6375 l 0,0 c -1.7425,3.675 -4.81125,6.45 -8.64375,7.815 l 0,0 c -4.29125,1.53125 -9.0025,1.07 -12.92,-1.27 l 0,0 c -0.32125,-0.19 -0.735,-0.0875 -0.925,0.235 l 0,0 c -0.1925,0.32 -0.0875,0.73125 0.2325,0.9225 l 0,0 c 2.60875,1.5575 5.54125,2.35125 8.4925,2.35125 l 0,0 c 1.87625,0 3.75875,-0.32 5.575,-0.96625 l 0,0 c 4.16875,-1.48625 7.51,-4.51 9.4075,-8.50875 l 0,0 c 1.89875,-3.99875 2.125,-8.5 0.6375,-12.66875 l 0,0 c -1.48625,-4.17 -4.5075,-7.51125 -8.5075,-9.41 l 0,0 c -2.255,-1.06875 -4.66875,-1.6075 -7.09125,-1.6075 l 0,0 c -1.87625,0 -3.7575,0.3225 -5.5775,0.97125" />
    <g
       id="g4157"
       transform="matrix(1.25,0,0,-1.25,-163.67998,640.66658)">
      <g
         id="g4159">
        <g
           id="g4165">
          <g
             id="g4167">
            <path
               id="path4177"
               style="fill:url(#linearGradient4169);stroke:none"
               d="m 404.043,135.181 c -0.298,0 -0.539,-0.241 -0.539,-0.539 l 0,0 c 0,-0.298 0.241,-0.54 0.539,-0.54 l 0,0 13.44,0 c 0.299,0 0.54,0.242 0.54,0.54 l 0,0 c 0,0.298 -0.241,0.539 -0.54,0.539 l 0,0 -13.44,0 z" />
          </g>
        </g>
      </g>
    </g>
    <g
       id="g4179"
       transform="matrix(1.25,0,0,-1.25,-163.67998,640.66658)">
      <g
         id="g4181">
        <g
           id="g4187">
          <g
             id="g4189">
            <path
               id="path4199"
               style="fill:url(#linearGradient4191);stroke:none"
               d="m 413.722,141.049 c -0.21,-0.211 -0.21,-0.552 0,-0.762 l 0,0 5.646,-5.645 -5.646,-5.644 c -0.21,-0.211 -0.21,-0.553 0,-0.763 l 0,0 c 0.105,-0.107 0.243,-0.159 0.382,-0.159 l 0,0 c 0.139,0 0.277,0.052 0.382,0.159 l 0,0 6.026,6.025 c 0.211,0.211 0.211,0.552 0,0.762 l 0,0 -6.026,6.027 c -0.106,0.106 -0.244,0.159 -0.382,0.159 l 0,0 c -0.138,0 -0.276,-0.053 -0.382,-0.159" />
          </g>
        </g>
      </g>
    </g>
  </g>
</svg>
